LibreFranklin-BlackItalic.ufo
<glyph name="parenleft" format="2">
  <advance width="332"/>
  <unicode hex="0028"/>
  <outline>
    <contour>
      <point x="139" y="-165" type="curve"/>
      <point x="139" y="-165" type="line"/>
      <point x="248" y="-165" type="line" smooth="yes"/>
      <point x="260" y="-165"/>
      <point x="257" y="-161"/>
      <point x="253" y="-158" type="curve"/>
      <point x="205" y="-3"/>
      <point x="188" y="127"/>
      <point x="208" y="273" type="curve"/>
      <point x="231" y="437"/>
      <point x="297" y="591"/>
      <point x="381" y="717" type="curve"/>
      <point x="385" y="728"/>
      <point x="380" y="742"/>
      <point x="368" y="742" type="curve"/>
      <point x="263" y="742" type="line" smooth="yes"/>
      <point x="250" y="742"/>
      <point x="244" y="741"/>
      <point x="234" y="737" type="curve"/>
      <point x="135" y="608"/>
      <point x="62" y="457"/>
      <point x="39" y="296" type="curve"/>
      <point x="15" y="120"/>
      <point x="56" y="-6"/>
      <point x="120" y="-142" type="curve"/>
      <point x="122" y="-156"/>
      <point x="129" y="-165"/>
    </contour>
  </outline>
</glyph>
<glyph name="nine" format="2">
  <advance width="701"/>
  <unicode hex="0039"/>
  <outline>
    <contour>
      <point x="298" y="-8" type="curve"/>
      <point x="298" y="-8" type="line"/>
      <point x="538" y="-8"/>
      <point x="691" y="204"/>
      <point x="691" y="450" type="curve"/>
      <point x="691" y="631"/>
      <point x="583" y="750"/>
      <point x="397" y="750" type="curve"/>
      <point x="223" y="750"/>
      <point x="60" y="644"/>
      <point x="60" y="481" type="curve"/>
      <point x="60" y="363"/>
      <point x="156" y="281"/>
      <point x="302" y="281" type="curve"/>
      <point x="354" y="281"/>
      <point x="389" y="289"/>
      <point x="432" y="306" type="curve"/>
      <point x="447" y="312"/>
      <point x="450" y="312"/>
      <point x="450" y="300" type="curve"/>
      <point x="436" y="205"/>
      <point x="377" y="146"/>
      <point x="303" y="146" type="curve"/>
      <point x="260" y="146"/>
      <point x="242" y="168"/>
      <point x="229" y="203" type="curve"/>
      <point x="223" y="219"/>
      <point x="213" y="225"/>
      <point x="201" y="222" type="curve"/>
      <point x="59" y="181" type="line" smooth="yes"/>
      <point x="51" y="178"/>
      <point x="46" y="173"/>
      <point x="47" y="163" type="curve"/>
      <point x="56" y="95"/>
      <point x="142" y="-8"/>
    </contour>
    <contour>
      <point x="358" y="425" type="curve"/>
      <point x="358" y="425" type="line"/>
      <point x="318" y="425"/>
      <point x="283" y="444"/>
      <point x="283" y="488" type="curve"/>
      <point x="283" y="546"/>
      <point x="337" y="606"/>
      <point x="401" y="606" type="curve"/>
      <point x="448" y="606"/>
      <point x="477" y="575"/>
      <point x="477" y="517" type="curve"/>
      <point x="477" y="489"/>
      <point x="474" y="466"/>
      <point x="453" y="455" type="curve"/>
      <point x="425" y="439"/>
      <point x="395" y="425"/>
    </contour>
  </outline>
</glyph>
<glyph name="I" format="2">
  <advance width="331"/>
  <unicode hex="0049"/>
  <anchor x="211" y="10" name="ogonek"/>
  <anchor x="128" y="0" name="bottom"/>
  <anchor x="233" y="742" name="top"/>
  <outline>
    <contour>
      <point x="328" y="742" type="curve"/>
      <point x="134" y="742" type="line"/>
      <point x="123" y="742"/>
      <point x="119" y="740"/>
      <point x="117" y="725" type="curve"/>
      <point x="19" y="31" type="line" smooth="yes"/>
      <point x="17" y="14"/>
      <point x="18" y="0"/>
      <point x="39" y="0" type="curve"/>
      <point x="213" y="0" type="line" smooth="yes"/>
      <point x="236" y="0"/>
      <point x="242" y="2"/>
      <point x="245" y="23" type="curve"/>
      <point x="342" y="715" type="line" smooth="yes"/>
      <point x="344" y="731"/>
      <point x="341" y="742"/>
    </contour>
  </outline>
</glyph>
<glyph name="R" format="2">
  <advance width="739"/>
  <unicode hex="0052"/>
  <anchor x="425" y="742" name="top"/>
  <anchor x="331" y="0" name="bottom"/>
  <outline>
    <contour>
      <point x="667" y="27" type="curve"/>
      <point x="667" y="27" type="line"/>
      <point x="579" y="307" type="line" smooth="yes"/>
      <point x="576" y="315"/>
      <point x="577" y="320"/>
      <point x="595" y="327" type="curve"/>
      <point x="686" y="363"/>
      <point x="748" y="454"/>
      <point x="748" y="551" type="curve"/>
      <point x="748" y="671"/>
      <point x="646" y="742"/>
      <point x="468" y="742" type="curve"/>
      <point x="134" y="742" type="line" smooth="yes"/>
      <point x="122" y="742"/>
      <point x="119" y="740"/>
      <point x="117" y="725" type="curve"/>
      <point x="19" y="31" type="line" smooth="yes"/>
      <point x="17" y="14"/>
      <point x="21" y="0"/>
      <point x="41" y="0" type="curve"/>
      <point x="209" y="0" type="line" smooth="yes"/>
      <point x="232" y="0"/>
      <point x="242" y="2"/>
      <point x="245" y="23" type="curve"/>
      <point x="282" y="283" type="line" smooth="yes"/>
      <point x="283" y="291"/>
      <point x="286" y="295"/>
      <point x="297" y="295" type="curve"/>
      <point x="357" y="295" type="line" smooth="yes"/>
      <point x="368" y="295"/>
      <point x="370" y="292"/>
      <point x="372" y="284" type="curve"/>
      <point x="430" y="26" type="line" smooth="yes"/>
      <point x="434" y="6"/>
      <point x="442" y="0"/>
      <point x="456" y="0" type="curve"/>
      <point x="650" y="0" type="line" smooth="yes"/>
      <point x="667" y="0"/>
      <point x="673" y="8"/>
    </contour>
    <contour>
      <point x="417" y="444" type="curve"/>
      <point x="417" y="444" type="line"/>
      <point x="317" y="444" type="line" smooth="yes"/>
      <point x="309" y="444"/>
      <point x="304" y="446"/>
      <point x="306" y="459" type="curve"/>
      <point x="323" y="574" type="line" smooth="yes"/>
      <point x="325" y="589"/>
      <point x="328" y="594"/>
      <point x="338" y="594" type="curve"/>
      <point x="440" y="594" type="line" smooth="yes"/>
      <point x="481" y="594"/>
      <point x="513" y="576"/>
      <point x="513" y="537" type="curve"/>
      <point x="513" y="489"/>
      <point x="474" y="444"/>
    </contour>
  </outline>
</glyph>
<glyph name="Y" format="2">
  <advance width="774"/>
  <unicode hex="0059"/>
  <anchor x="470" y="742" name="top"/>
  <anchor x="350" y="0" name="bottom"/>
  <anchor x="87" y="742" name="topleft"/>
  <outline>
    <contour>
      <point x="803" y="742" type="curve"/>
      <point x="803" y="742" type="line"/>
      <point x="638" y="742" type="line" smooth="yes"/>
      <point x="619" y="742"/>
      <point x="615" y="741"/>
      <point x="605" y="726" type="curve"/>
      <point x="445" y="494" type="line" smooth="yes"/>
      <point x="440" y="487"/>
      <point x="437" y="487"/>
      <point x="434" y="494" type="curve"/>
      <point x="341" y="716" type="line" smooth="yes"/>
      <point x="334" y="732"/>
      <point x="329" y="742"/>
      <point x="310" y="742" type="curve"/>
      <point x="109" y="742" type="line" smooth="yes"/>
      <point x="88" y="742"/>
      <point x="86" y="735"/>
      <point x="94" y="719" type="curve"/>
      <point x="275" y="337" type="line" smooth="yes"/>
      <point x="281" y="322"/>
      <point x="283" y="315"/>
      <point x="280" y="294" type="curve"/>
      <point x="242" y="24" type="line" smooth="yes"/>
      <point x="240" y="7"/>
      <point x="243" y="0"/>
      <point x="261" y="0" type="curve"/>
      <point x="437" y="0" type="line" smooth="yes"/>
      <point x="460" y="0"/>
      <point x="466" y="2"/>
      <point x="469" y="23" type="curve"/>
      <point x="504" y="269" type="line" smooth="yes"/>
      <point x="509" y="311"/>
      <point x="514" y="322"/>
      <point x="525" y="336" type="curve"/>
      <point x="816" y="718" type="line" smooth="yes"/>
      <point x="823" y="728"/>
      <point x="820" y="742"/>
    </contour>
  </outline>
</glyph>
<glyph name="g" format="2">
  <advance width="653"/>
  <unicode hex="0067"/>
  <anchor x="343" y="530" name="top"/>
  <outline>
    <contour>
      <point x="224" y="-174" type="curve"/>
      <point x="224" y="-174" type="line"/>
      <point x="371" y="-174"/>
      <point x="573" y="-144"/>
      <point x="573" y="7" type="curve"/>
      <point x="573" y="90"/>
      <point x="513" y="144"/>
      <point x="376" y="152" type="curve"/>
      <point x="225" y="161" type="line" smooth="yes"/>
      <point x="200" y="163"/>
      <point x="188" y="165"/>
      <point x="188" y="174" type="curve"/>
      <point x="188" y="205"/>
      <point x="275" y="209"/>
      <point x="293" y="209" type="curve"/>
      <point x="404" y="209"/>
      <point x="564" y="252"/>
      <point x="564" y="377" type="curve"/>
      <point x="564" y="388"/>
      <point x="563" y="398"/>
      <point x="561" y="403" type="curve"/>
      <point x="554" y="419"/>
      <point x="563" y="428"/>
      <point x="586" y="428" type="curve"/>
      <point x="594" y="428"/>
      <point x="622" y="427"/>
      <point x="639" y="426" type="curve"/>
      <point x="651" y="425"/>
      <point x="657" y="428"/>
      <point x="660" y="451" type="curve"/>
      <point x="672" y="541" type="line" smooth="yes"/>
      <point x="674" y="559"/>
      <point x="664" y="562"/>
      <point x="649" y="562" type="curve"/>
      <point x="624" y="562"/>
      <point x="564" y="543"/>
      <point x="533" y="506" type="curve"/>
      <point x="522" y="493"/>
      <point x="506" y="476"/>
      <point x="496" y="486" type="curve"/>
      <point x="468" y="512"/>
      <point x="415" y="538"/>
      <point x="312" y="538" type="curve"/>
      <point x="185" y="538"/>
      <point x="50" y="489"/>
      <point x="50" y="361" type="curve"/>
      <point x="50" y="306"/>
      <point x="82" y="265"/>
      <point x="131" y="248" type="curve"/>
      <point x="145" y="243"/>
      <point x="141" y="236"/>
      <point x="124" y="230" type="curve"/>
      <point x="73" y="213"/>
      <point x="7" y="178"/>
      <point x="7" y="121" type="curve"/>
      <point x="7" y="82"/>
      <point x="26" y="62"/>
      <point x="59" y="50" type="curve"/>
      <point x="74" y="44"/>
      <point x="71" y="36"/>
      <point x="55" y="31" type="curve"/>
      <point x="2" y="16"/>
      <point x="-50" y="-10"/>
      <point x="-50" y="-61" type="curve"/>
      <point x="-50" y="-135"/>
      <point x="57" y="-174"/>
    </contour>
    <contour>
      <point x="236" y="-86" type="curve"/>
      <point x="236" y="-86" type="line"/>
      <point x="147" y="-86"/>
      <point x="114" y="-68"/>
      <point x="114" y="-40" type="curve"/>
      <point x="114" y="-4"/>
      <point x="170" y="8"/>
      <point x="194" y="9" type="curve"/>
      <point x="338" y="2" type="line" smooth="yes"/>
      <point x="381" y="0"/>
      <point x="396" y="-8"/>
      <point x="396" y="-26" type="curve"/>
      <point x="396" y="-58"/>
      <point x="348" y="-86"/>
    </contour>
    <contour>
      <point x="297" y="300" type="curve"/>
      <point x="297" y="300" type="line"/>
      <point x="254" y="300"/>
      <point x="225" y="324"/>
      <point x="225" y="352" type="curve"/>
      <point x="225" y="402"/>
      <point x="264" y="445"/>
      <point x="313" y="445" type="curve"/>
      <point x="361" y="445"/>
      <point x="386" y="422"/>
      <point x="386" y="390" type="curve"/>
      <point x="386" y="338"/>
      <point x="347" y="300"/>
    </contour>
  </outline>
</glyph>
<glyph name="o" format="2">
  <advance width="600"/>
  <unicode hex="006F"/>
  <anchor x="342" y="10" name="ogonek"/>
  <anchor x="337" y="530" name="top"/>
  <anchor x="338" y="525" name="topright"/>
  <anchor x="260" y="0" name="bottom"/>
  <outline>
    <contour>
      <point x="268" y="-10" type="curve"/>
      <point x="268" y="-10" type="line"/>
      <point x="445" y="-10"/>
      <point x="580" y="121"/>
      <point x="580" y="298" type="curve"/>
      <point x="580" y="440"/>
      <point x="485" y="540"/>
      <point x="331" y="540" type="curve"/>
      <point x="165" y="540"/>
      <point x="19" y="415"/>
      <point x="19" y="228" type="curve"/>
      <point x="19" y="87"/>
      <point x="116" y="-10"/>
    </contour>
    <contour>
      <point x="271" y="118" type="curve"/>
      <point x="271" y="118" type="line"/>
      <point x="234" y="118"/>
      <point x="217" y="140"/>
      <point x="217" y="193" type="curve"/>
      <point x="217" y="345"/>
      <point x="269" y="416"/>
      <point x="329" y="416" type="curve"/>
      <point x="367" y="416"/>
      <point x="384" y="393"/>
      <point x="384" y="339" type="curve"/>
      <point x="384" y="189"/>
      <point x="333" y="118"/>
    </contour>
  </outline>
</glyph>
<glyph name="t" format="2">
  <advance width="462"/>
  <unicode hex="0074"/>
  <anchor x="226" y="265" name="center"/>
  <anchor x="230" y="0" name="bottom"/>
  <anchor x="518" y="815" name="topright"/>
  <outline>
    <contour>
      <point x="242" y="0" type="curve"/>
      <point x="242" y="0" type="line"/>
      <point x="283" y="0"/>
      <point x="335" y="1"/>
      <point x="377" y="5" type="curve"/>
      <point x="392" y="6"/>
      <point x="400" y="15"/>
      <point x="402" y="31" type="curve"/>
      <point x="414" y="111" type="line" smooth="yes"/>
      <point x="416" y="122"/>
      <point x="407" y="137"/>
      <point x="396" y="137" type="curve"/>
      <point x="353" y="137" type="line" smooth="yes"/>
      <point x="310" y="137"/>
      <point x="293" y="146"/>
      <point x="293" y="172" type="curve"/>
      <point x="293" y="176"/>
      <point x="293" y="180"/>
      <point x="294" y="184" type="curve"/>
      <point x="321" y="376" type="line" smooth="yes"/>
      <point x="323" y="389"/>
      <point x="329" y="395"/>
      <point x="340" y="395" type="curve"/>
      <point x="433" y="395" type="line" smooth="yes"/>
      <point x="450" y="395"/>
      <point x="455" y="398"/>
      <point x="457" y="411" type="curve"/>
      <point x="471" y="514" type="line" smooth="yes"/>
      <point x="473" y="527"/>
      <point x="462" y="531"/>
      <point x="449" y="531" type="curve"/>
      <point x="361" y="531" type="line" smooth="yes"/>
      <point x="354" y="531"/>
      <point x="348" y="537"/>
      <point x="349" y="544" type="curve"/>
      <point x="370" y="682" type="line" smooth="yes"/>
      <point x="373" y="704"/>
      <point x="368" y="710"/>
      <point x="357" y="710" type="curve"/>
      <point x="210" y="710" type="line" smooth="yes"/>
      <point x="198" y="710"/>
      <point x="191" y="707"/>
      <point x="188" y="696" type="curve"/>
      <point x="150" y="548" type="line" smooth="yes"/>
      <point x="148" y="539"/>
      <point x="140" y="530"/>
      <point x="132" y="530" type="curve"/>
      <point x="73" y="530" type="line" smooth="yes"/>
      <point x="59" y="530"/>
      <point x="55" y="530"/>
      <point x="53" y="517" type="curve"/>
      <point x="40" y="423" type="line" smooth="yes"/>
      <point x="37" y="403"/>
      <point x="41" y="395"/>
      <point x="52" y="395" type="curve"/>
      <point x="102" y="395" type="line" smooth="yes"/>
      <point x="114" y="395"/>
      <point x="123" y="391"/>
      <point x="122" y="381" type="curve"/>
      <point x="87" y="139" type="line" smooth="yes"/>
      <point x="86" y="132"/>
      <point x="86" y="126"/>
      <point x="86" y="120" type="curve"/>
      <point x="86" y="46"/>
      <point x="150" y="0"/>
    </contour>
  </outline>
</glyph>
<glyph name="v" format="2">
  <advance width="591"/>
  <unicode hex="0076"/>
  <outline>
    <contour>
      <point x="590" y="530" type="curve"/>
      <point x="590" y="530" type="line"/>
      <point x="478" y="530" type="line" smooth="yes"/>
      <point x="466" y="530"/>
      <point x="459" y="526"/>
      <point x="452" y="515" type="curve"/>
      <point x="335" y="285" type="line" smooth="yes"/>
      <point x="328" y="271"/>
      <point x="322" y="262"/>
      <point x="319" y="274" type="curve"/>
      <point x="263" y="505" type="line" smooth="yes"/>
      <point x="261" y="516"/>
      <point x="250" y="530"/>
      <point x="238" y="530" type="curve"/>
      <point x="69" y="530" type="line" smooth="yes"/>
      <point x="53" y="530"/>
      <point x="49" y="520"/>
      <point x="52" y="506" type="curve"/>
      <point x="181" y="30" type="line" smooth="yes"/>
      <point x="184" y="13"/>
      <point x="195" y="0"/>
      <point x="215" y="0" type="curve"/>
      <point x="309" y="0" type="line" smooth="yes"/>
      <point x="329" y="0"/>
      <point x="336" y="3"/>
      <point x="346" y="20" type="curve"/>
      <point x="608" y="496" type="line" smooth="yes"/>
      <point x="614" y="510"/>
      <point x="606" y="530"/>
    </contour>
  </outline>
</glyph>
<glyph name="w" format="2">
  <advance width="832"/>
  <unicode hex="0077"/>
  <anchor x="452" y="530" name="top"/>
  <outline>
    <contour>
      <point x="831" y="530" type="curve"/>
      <point x="831" y="530" type="line"/>
      <point x="731" y="530" type="line" smooth="yes"/>
      <point x="719" y="530"/>
      <point x="712" y="526"/>
      <point x="705" y="515" type="curve"/>
      <point x="607" y="302" type="line" smooth="yes"/>
      <point x="601" y="288"/>
      <point x="593" y="279"/>
      <point x="592" y="291" type="curve"/>
      <point x="558" y="505" type="line" smooth="yes"/>
      <point x="557" y="516"/>
      <point x="545" y="530"/>
      <point x="534" y="530" type="curve"/>
      <point x="425" y="530" type="line" smooth="yes"/>
      <point x="413" y="530"/>
      <point x="405" y="526"/>
      <point x="400" y="515" type="curve"/>
      <point x="304" y="302" type="line" smooth="yes"/>
      <point x="298" y="288"/>
      <point x="290" y="279"/>
      <point x="289" y="291" type="curve"/>
      <point x="249" y="505" type="line" smooth="yes"/>
      <point x="248" y="516"/>
      <point x="236" y="530"/>
      <point x="224" y="530" type="curve"/>
      <point x="69" y="530" type="line" smooth="yes"/>
      <point x="53" y="530"/>
      <point x="49" y="520"/>
      <point x="52" y="506" type="curve"/>
      <point x="149" y="27" type="line" smooth="yes"/>
      <point x="150" y="11"/>
      <point x="160" y="0"/>
      <point x="175" y="0" type="curve"/>
      <point x="282" y="0" type="line" smooth="yes"/>
      <point x="297" y="0"/>
      <point x="299" y="0"/>
      <point x="305" y="13" type="curve"/>
      <point x="406" y="227" type="line" smooth="yes"/>
      <point x="411" y="241"/>
      <point x="419" y="251"/>
      <point x="422" y="237" type="curve"/>
      <point x="458" y="27" type="line" smooth="yes"/>
      <point x="459" y="11"/>
      <point x="469" y="0"/>
      <point x="485" y="0" type="curve"/>
      <point x="589" y="0" type="line" smooth="yes"/>
      <point x="603" y="0"/>
      <point x="605" y="0"/>
      <point x="611" y="13" type="curve"/>
      <point x="849" y="496" type="line" smooth="yes"/>
      <point x="856" y="510"/>
      <point x="847" y="530"/>
    </contour>
  </outline>
</glyph>
<glyph name="exclamdown" format="2">
  <advance width="277"/>
  <unicode hex="00A1"/>
  <outline>
    <contour>
      <point x="256" y="347" type="curve"/>
      <point x="256" y="347" type="line"/>
      <point x="276" y="495" type="line" smooth="yes"/>
      <point x="279" y="516"/>
      <point x="268" y="530"/>
      <point x="244" y="530" type="curve"/>
      <point x="94" y="530" type="line" smooth="yes"/>
      <point x="74" y="530"/>
      <point x="71" y="528"/>
      <point x="69" y="511" type="curve"/>
      <point x="47" y="361" type="line" smooth="yes"/>
      <point x="45" y="346"/>
      <point x="56" y="333"/>
      <point x="67" y="333" type="curve"/>
      <point x="240" y="333" type="line" smooth="yes"/>
      <point x="252" y="333"/>
      <point x="254" y="334"/>
    </contour>
    <contour>
      <point x="194" y="-150" type="curve"/>
      <point x="194" y="-150" type="line"/>
      <point x="199" y="230" type="line" smooth="yes"/>
      <point x="201" y="250"/>
      <point x="191" y="264"/>
      <point x="168" y="264" type="curve"/>
      <point x="99" y="264" type="line" smooth="yes"/>
      <point x="79" y="264"/>
      <point x="79" y="262"/>
      <point x="73" y="245" type="curve"/>
      <point x="-30" y="-136" type="line" smooth="yes"/>
      <point x="-34" y="-151"/>
      <point x="-22" y="-165"/>
      <point x="-10" y="-165" type="curve"/>
      <point x="179" y="-165" type="line" smooth="yes"/>
      <point x="190" y="-165"/>
      <point x="194" y="-163"/>
    </contour>
  </outline>
</glyph>
<glyph name="guillemetleft" format="2">
  <advance width="513"/>
  <unicode hex="00AB"/>
  <outline>
    <contour>
      <point x="433" y="68" type="curve"/>
      <point x="398" y="239" type="line"/>
      <point x="398" y="248"/>
      <point x="401" y="256"/>
      <point x="405" y="265" type="curve"/>
      <point x="488" y="442" type="line" smooth="yes"/>
      <point x="492" y="453"/>
      <point x="482" y="463"/>
      <point x="473" y="463" type="curve"/>
      <point x="398" y="463" type="line" smooth="yes"/>
      <point x="390" y="463"/>
      <point x="388" y="467"/>
      <point x="382" y="458" type="curve"/>
      <point x="264" y="283" type="line" smooth="yes"/>
      <point x="256" y="270"/>
      <point x="257" y="255"/>
      <point x="263" y="240" type="curve"/>
      <point x="333" y="75" type="line" smooth="yes"/>
      <point x="333" y="69"/>
      <point x="341" y="60"/>
      <point x="348" y="60" type="curve"/>
      <point x="421" y="60" type="line" smooth="yes"/>
      <point x="435" y="60"/>
      <point x="435" y="59"/>
    </contour>
    <contour>
      <point x="225" y="68" type="curve"/>
      <point x="190" y="239" type="line"/>
      <point x="190" y="248"/>
      <point x="193" y="256"/>
      <point x="197" y="265" type="curve"/>
      <point x="280" y="442" type="line" smooth="yes"/>
      <point x="284" y="453"/>
      <point x="274" y="463"/>
      <point x="265" y="463" type="curve"/>
      <point x="190" y="463" type="line" smooth="yes"/>
      <point x="182" y="463"/>
      <point x="180" y="467"/>
      <point x="174" y="458" type="curve"/>
      <point x="56" y="283" type="line" smooth="yes"/>
      <point x="48" y="270"/>
      <point x="49" y="255"/>
      <point x="55" y="240" type="curve"/>
      <point x="125" y="75" type="line" smooth="yes"/>
      <point x="125" y="69"/>
      <point x="133" y="60"/>
      <point x="140" y="60" type="curve"/>
      <point x="213" y="60" type="line" smooth="yes"/>
      <point x="227" y="60"/>
      <point x="227" y="59"/>
    </contour>
  </outline>
</glyph>
<glyph name="guillemetright" format="2">
  <advance width="513"/>
  <unicode hex="00BB"/>
  <outline>
    <contour>
      <point x="106" y="249" type="curve"/>
      <point x="106" y="249" type="line"/>
      <point x="23" y="78" type="line" smooth="yes"/>
      <point x="19" y="69"/>
      <point x="28" y="60"/>
      <point x="42" y="60" type="curve"/>
      <point x="115" y="60" type="line" smooth="yes"/>
      <point x="122" y="60"/>
      <point x="126" y="59"/>
      <point x="130" y="65" type="curve"/>
      <point x="246" y="230" type="line" smooth="yes"/>
      <point x="256" y="245"/>
      <point x="253" y="260"/>
      <point x="248" y="273" type="curve"/>
      <point x="179" y="448" type="line" smooth="yes"/>
      <point x="176" y="457"/>
      <point x="171" y="463"/>
      <point x="163" y="463" type="curve"/>
      <point x="88" y="463" type="line" smooth="yes"/>
      <point x="79" y="463"/>
      <point x="77" y="463"/>
      <point x="79" y="452" type="curve"/>
      <point x="112" y="275" type="line" smooth="yes"/>
      <point x="113" y="266"/>
      <point x="110" y="258"/>
    </contour>
    <contour>
      <point x="314" y="249" type="curve"/>
      <point x="314" y="249" type="line"/>
      <point x="231" y="78" type="line" smooth="yes"/>
      <point x="227" y="69"/>
      <point x="236" y="60"/>
      <point x="250" y="60" type="curve"/>
      <point x="323" y="60" type="line" smooth="yes"/>
      <point x="330" y="60"/>
      <point x="334" y="59"/>
      <point x="338" y="65" type="curve"/>
      <point x="454" y="230" type="line" smooth="yes"/>
      <point x="464" y="245"/>
      <point x="461" y="260"/>
      <point x="456" y="273" type="curve"/>
      <point x="387" y="448" type="line" smooth="yes"/>
      <point x="384" y="457"/>
      <point x="379" y="463"/>
      <point x="371" y="463" type="curve"/>
      <point x="296" y="463" type="line" smooth="yes"/>
      <point x="287" y="463"/>
      <point x="285" y="463"/>
      <point x="287" y="452" type="curve"/>
      <point x="320" y="275" type="line" smooth="yes"/>
      <point x="321" y="266"/>
      <point x="318" y="258"/>
    </contour>
  </outline>
</glyph>
<glyph name="divide" format="2">
  <advance width="602"/>
  <unicode hex="00F7"/>
  <outline>
    <contour>
      <point x="371" y="81" type="curve"/>
      <point x="391" y="219" type="line"/>
      <point x="392" y="231"/>
      <point x="385" y="243"/>
      <point x="374" y="243" type="curve"/>
      <point x="217" y="243" type="line" smooth="yes"/>
      <point x="207" y="243"/>
      <point x="204" y="243"/>
      <point x="202" y="229" type="curve"/>
      <point x="182" y="89" type="line" smooth="yes"/>
      <point x="180" y="74"/>
      <point x="188" y="61"/>
      <point x="206" y="61" type="curve"/>
      <point x="342" y="61" type="line" smooth="yes"/>
      <point x="364" y="61"/>
      <point x="368" y="62"/>
    </contour>
    <contour>
      <point x="570" y="325" type="curve"/>
      <point x="584" y="418" type="line"/>
      <point x="585" y="430"/>
      <point x="576" y="444"/>
      <point x="565" y="444" type="curve"/>
      <point x="80" y="444" type="line" smooth="yes"/>
      <point x="68" y="444"/>
      <point x="65" y="442"/>
      <point x="63" y="427" type="curve"/>
      <point x="50" y="334" type="line" smooth="yes"/>
      <point x="47" y="317"/>
      <point x="55" y="303"/>
      <point x="75" y="303" type="curve"/>
      <point x="538" y="303" type="line" smooth="yes"/>
      <point x="561" y="303"/>
      <point x="568" y="305"/>
    </contour>
    <contour>
      <point x="433" y="524" type="curve"/>
      <point x="453" y="662" type="line"/>
      <point x="454" y="674"/>
      <point x="447" y="686"/>
      <point x="436" y="686" type="curve"/>
      <point x="279" y="686" type="line" smooth="yes"/>
      <point x="269" y="686"/>
      <point x="266" y="686"/>
      <point x="264" y="672" type="curve"/>
      <point x="245" y="533" type="line" smooth="yes"/>
      <point x="242" y="517"/>
      <point x="251" y="504"/>
      <point x="269" y="504" type="curve"/>
      <point x="405" y="504" type="line" smooth="yes"/>
      <point x="427" y="504"/>
      <point x="431" y="505"/>
    </contour>
  </outline>
</glyph>
<glyph name="Lslash" format="2">
  <advance width="606"/>
  <unicode hex="0141"/>
  <outline>
    <contour>
      <point x="430" y="415" type="curve"/>
      <point x="446" y="528" type="line"/>
      <point x="448" y="544"/>
      <point x="439" y="558"/>
      <point x="422" y="554" type="curve"/>
      <point x="1" y="445" type="line" smooth="yes"/>
      <point x="-11" y="442"/>
      <point x="-14" y="442"/>
      <point x="-16" y="427" type="curve"/>
      <point x="-33" y="307" type="line" smooth="yes"/>
      <point x="-35" y="290"/>
      <point x="-28" y="275"/>
      <point x="-7" y="281" type="curve"/>
      <point x="411" y="395" type="line" smooth="yes"/>
      <point x="426" y="399"/>
      <point x="428" y="403"/>
    </contour>
    <component base="L" xOffset="-37"/>
  </outline>
</glyph>
<glyph name="Omega" format="2">
  <advance width="767"/>
  <unicode hex="03A9"/>
  <outline>
    <contour>
      <point x="442" y="598" type="curve" smooth="yes"/>
      <point x="506" y="598"/>
      <point x="553" y="548"/>
      <point x="533" y="406" type="curve" smooth="yes"/>
      <point x="514" y="274"/>
      <point x="458" y="198"/>
      <point x="408" y="165" type="curve" smooth="yes"/>
      <point x="391" y="146"/>
      <point x="389" y="139"/>
      <point x="387" y="123" type="curve" smooth="yes"/>
      <point x="374" y="30" type="line" smooth="yes"/>
      <point x="372" y="14"/>
      <point x="381" y="0"/>
      <point x="396" y="0" type="curve" smooth="yes"/>
      <point x="679" y="0" type="line" smooth="yes"/>
      <point x="690" y="0"/>
      <point x="690" y="1"/>
      <point x="691" y="12" type="curve" smooth="yes"/>
      <point x="710" y="141" type="line" smooth="yes"/>
      <point x="711" y="153"/>
      <point x="704" y="164"/>
      <point x="694" y="164" type="curve" smooth="yes"/>
      <point x="603" y="164" type="line" smooth="yes"/>
      <point x="595" y="164"/>
      <point x="601" y="167"/>
      <point x="611" y="169" type="curve" smooth="yes"/>
      <point x="678" y="228"/>
      <point x="740" y="312"/>
      <point x="753" y="408" type="curve" smooth="yes"/>
      <point x="775" y="561"/>
      <point x="684" y="752"/>
      <point x="447" y="752" type="curve" smooth="yes"/>
      <point x="227" y="752"/>
      <point x="79" y="588"/>
      <point x="57" y="429" type="curve" smooth="yes"/>
      <point x="41" y="317"/>
      <point x="88" y="233"/>
      <point x="137" y="188" type="curve" smooth="yes"/>
      <point x="141" y="176"/>
      <point x="133" y="164"/>
      <point x="122" y="164" type="curve" smooth="yes"/>
      <point x="40" y="164" type="line" smooth="yes"/>
      <point x="30" y="164"/>
      <point x="26" y="165"/>
      <point x="25" y="155" type="curve" smooth="yes"/>
      <point x="6" y="26" type="line" smooth="yes"/>
      <point x="5" y="13"/>
      <point x="16" y="0"/>
      <point x="25" y="0" type="curve" smooth="yes"/>
      <point x="309" y="0" type="line" smooth="yes"/>
      <point x="321" y="0"/>
      <point x="324" y="2"/>
      <point x="326" y="16" type="curve" smooth="yes"/>
      <point x="339" y="112" type="line" smooth="yes"/>
      <point x="342" y="128"/>
      <point x="333" y="142"/>
      <point x="316" y="152" type="curve" smooth="yes"/>
      <point x="278" y="197"/>
      <point x="254" y="267"/>
      <point x="270" y="379" type="curve" smooth="yes"/>
      <point x="293" y="542"/>
      <point x="373" y="598"/>
    </contour>
  </outline>
</glyph>
<glyph name="quoteleft" format="2">
  <advance width="253"/>
  <unicode hex="2018"/>
  <outline>
    <contour>
      <point x="301" y="742" type="curve"/>
      <point x="301" y="742" type="line"/>
      <point x="285" y="742" type="line" smooth="yes"/>
      <point x="271" y="742"/>
      <point x="250" y="730"/>
      <point x="240" y="716" type="curve"/>
      <point x="118" y="565" type="line"/>
      <point x="115" y="562"/>
      <point x="110" y="556"/>
      <point x="109" y="550" type="curve" smooth="yes"/>
      <point x="92" y="423" type="line" smooth="yes"/>
      <point x="90" y="412"/>
      <point x="92" y="411"/>
      <point x="103" y="411" type="curve" smooth="yes"/>
      <point x="250" y="411" type="line" smooth="yes"/>
      <point x="261" y="411"/>
      <point x="274" y="424"/>
      <point x="276" y="438" type="curve" smooth="yes"/>
      <point x="294" y="570" type="line" smooth="yes"/>
      <point x="297" y="586"/>
      <point x="295" y="586"/>
      <point x="277" y="588" type="curve" smooth="yes"/>
      <point x="261" y="590" type="line"/>
      <point x="247" y="593"/>
      <point x="242" y="605"/>
      <point x="251" y="623" type="curve" smooth="yes"/>
      <point x="308" y="725" type="line" smooth="yes"/>
      <point x="313" y="735"/>
      <point x="313" y="742"/>
    </contour>
  </outline>
</glyph>
<glyph name="quotedblleft" format="2">
  <advance width="509"/>
  <unicode hex="201C"/>
  <outline>
    <contour>
      <point x="322" y="411" type="curve"/>
      <point x="322" y="411" type="line"/>
      <point x="469" y="411" type="line" smooth="yes"/>
      <point x="480" y="411"/>
      <point x="492" y="424"/>
      <point x="494" y="438" type="curve"/>
      <point x="513" y="570" type="line" smooth="yes"/>
      <point x="515" y="586"/>
      <point x="513" y="586"/>
      <point x="495" y="588" type="curve"/>
      <point x="480" y="590" type="line" smooth="yes"/>
      <point x="465" y="593"/>
      <point x="461" y="605"/>
      <point x="469" y="623" type="curve"/>
      <point x="527" y="725" type="line" smooth="yes"/>
      <point x="532" y="735"/>
      <point x="532" y="742"/>
      <point x="520" y="742" type="curve"/>
      <point x="504" y="742" type="line" smooth="yes"/>
      <point x="490" y="742"/>
      <point x="468" y="730"/>
      <point x="458" y="716" type="curve"/>
      <point x="336" y="565" type="line" smooth="yes"/>
      <point x="334" y="562"/>
      <point x="329" y="556"/>
      <point x="328" y="550" type="curve"/>
      <point x="310" y="423" type="line" smooth="yes"/>
      <point x="309" y="412"/>
      <point x="311" y="411"/>
    </contour>
    <contour>
      <point x="66" y="411" type="curve"/>
      <point x="66" y="411" type="line"/>
      <point x="213" y="411" type="line" smooth="yes"/>
      <point x="224" y="411"/>
      <point x="236" y="424"/>
      <point x="238" y="438" type="curve"/>
      <point x="257" y="570" type="line" smooth="yes"/>
      <point x="259" y="586"/>
      <point x="257" y="586"/>
      <point x="239" y="588" type="curve"/>
      <point x="224" y="590" type="line" smooth="yes"/>
      <point x="209" y="593"/>
      <point x="205" y="605"/>
      <point x="213" y="623" type="curve"/>
      <point x="271" y="725" type="line" smooth="yes"/>
      <point x="276" y="735"/>
      <point x="276" y="742"/>
      <point x="264" y="742" type="curve"/>
      <point x="248" y="742" type="line" smooth="yes"/>
      <point x="234" y="742"/>
      <point x="212" y="730"/>
      <point x="202" y="716" type="curve"/>
      <point x="80" y="565" type="line" smooth="yes"/>
      <point x="78" y="562"/>
      <point x="73" y="556"/>
      <point x="72" y="550" type="curve"/>
      <point x="54" y="423" type="line" smooth="yes"/>
      <point x="53" y="412"/>
      <point x="55" y="411"/>
    </contour>
  </outline>
</glyph>
<glyph name="fraction" format="2">
  <advance width="245"/>
  <unicode hex="2044"/>
  <unicode hex="2215"/>
  <outline>
    <contour>
      <point x="-103" y="3" type="curve"/>
      <point x="478" y="725" type="line"/>
      <point x="488" y="739"/>
      <point x="475" y="750"/>
      <point x="464" y="750" type="curve"/>
      <point x="398" y="750" type="line" smooth="yes"/>
      <point x="387" y="750"/>
      <point x="382" y="755"/>
      <point x="371" y="742" type="curve"/>
      <point x="-199" y="36" type="line" smooth="yes"/>
      <point x="-209" y="21"/>
      <point x="-204" y="-3"/>
      <point x="-183" y="-3" type="curve"/>
      <point x="-131" y="-4" type="line" smooth="yes"/>
      <point x="-116" y="-4"/>
      <point x="-110" y="-6"/>
    </contour>
  </outline>
</glyph>
<glyph name="lira" format="2">
  <advance width="664"/>
  <unicode hex="20A4"/>
  <outline>
    <contour>
      <point x="613" y="215" type="curve"/>
      <point x="613" y="215" type="line"/>
      <point x="493" y="239" type="line" smooth="yes"/>
      <point x="480" y="242"/>
      <point x="476" y="245"/>
      <point x="470" y="240" type="curve"/>
      <point x="448" y="188"/>
      <point x="415" y="164"/>
      <point x="362" y="164" type="curve"/>
      <point x="282" y="164" type="line" smooth="yes"/>
      <point x="271" y="164"/>
      <point x="273" y="168"/>
      <point x="288" y="172" type="curve"/>
      <point x="307" y="189"/>
      <point x="321" y="206"/>
      <point x="332" y="222" type="curve"/>
      <point x="337" y="238"/>
      <point x="344" y="245"/>
      <point x="353" y="245" type="curve"/>
      <point x="423" y="245" type="line" smooth="yes"/>
      <point x="446" y="245"/>
      <point x="452" y="247"/>
      <point x="455" y="267" type="curve"/>
      <point x="463" y="320" type="line" smooth="yes"/>
      <point x="464" y="332"/>
      <point x="455" y="346"/>
      <point x="444" y="346" type="curve"/>
      <point x="368" y="346" type="line" smooth="yes"/>
      <point x="358" y="346"/>
      <point x="358" y="342"/>
      <point x="358" y="352" type="curve"/>
      <point x="359" y="378" type="line" smooth="yes"/>
      <point x="360" y="386"/>
      <point x="369" y="395"/>
      <point x="377" y="395" type="curve"/>
      <point x="444" y="395" type="line" smooth="yes"/>
      <point x="467" y="395"/>
      <point x="474" y="397"/>
      <point x="476" y="417" type="curve"/>
      <point x="484" y="470" type="line" smooth="yes"/>
      <point x="485" y="482"/>
      <point x="476" y="496"/>
      <point x="465" y="496" type="curve"/>
      <point x="366" y="496" type="line" smooth="yes"/>
      <point x="358" y="496"/>
      <point x="358" y="495"/>
      <point x="357" y="498" type="curve"/>
      <point x="359" y="513"/>
      <point x="359" y="522"/>
      <point x="360" y="525" type="curve"/>
      <point x="366" y="569"/>
      <point x="393" y="598"/>
      <point x="427" y="598" type="curve"/>
      <point x="455" y="598"/>
      <point x="464" y="577"/>
      <point x="473" y="555" type="curve"/>
      <point x="474" y="541"/>
      <point x="485" y="532"/>
      <point x="495" y="535" type="curve"/>
      <point x="638" y="575" type="line" smooth="yes"/>
      <point x="648" y="578"/>
      <point x="649" y="580"/>
      <point x="644" y="585" type="curve"/>
      <point x="614" y="703"/>
      <point x="502" y="752"/>
      <point x="401" y="752" type="curve"/>
      <point x="269" y="752"/>
      <point x="140" y="689"/>
      <point x="130" y="552" type="curve"/>
      <point x="129" y="516" type="line" smooth="yes"/>
      <point x="128" y="506"/>
      <point x="119" y="496"/>
      <point x="108" y="496" type="curve"/>
      <point x="60" y="496" type="line" smooth="yes"/>
      <point x="48" y="496"/>
      <point x="45" y="494"/>
      <point x="43" y="479" type="curve"/>
      <point x="36" y="426" type="line" smooth="yes"/>
      <point x="33" y="409"/>
      <point x="41" y="395"/>
      <point x="61" y="395" type="curve"/>
      <point x="119" y="395" type="line" smooth="yes"/>
      <point x="126" y="395"/>
      <point x="128" y="398"/>
      <point x="128" y="391" type="curve"/>
      <point x="128" y="363" type="line" smooth="yes"/>
      <point x="127" y="355"/>
      <point x="118" y="346"/>
      <point x="110" y="346" type="curve"/>
      <point x="39" y="346" type="line" smooth="yes"/>
      <point x="27" y="346"/>
      <point x="24" y="344"/>
      <point x="22" y="329" type="curve"/>
      <point x="15" y="276" type="line" smooth="yes"/>
      <point x="12" y="259"/>
      <point x="20" y="245"/>
      <point x="40" y="245" type="curve"/>
      <point x="119" y="245" type="line" smooth="yes"/>
      <point x="125" y="245"/>
      <point x="125" y="249"/>
      <point x="125" y="248" type="curve"/>
      <point x="122" y="232"/>
      <point x="119" y="221"/>
      <point x="115" y="219" type="curve"/>
      <point x="100" y="181"/>
      <point x="66" y="163"/>
      <point x="26" y="163" type="curve"/>
      <point x="9" y="163" type="line" smooth="yes"/>
      <point x="-2" y="163"/>
      <point x="-2" y="164"/>
      <point x="-4" y="154" type="curve"/>
      <point x="-22" y="26" type="line" smooth="yes"/>
      <point x="-23" y="14"/>
      <point x="-15" y="0"/>
      <point x="-3" y="0" type="curve"/>
      <point x="363" y="0" type="line" smooth="yes"/>
      <point x="488" y="0"/>
      <point x="587" y="63"/>
      <point x="632" y="180" type="curve"/>
      <point x="637" y="198"/>
      <point x="628" y="212"/>
    </contour>
  </outline>
</glyph>
<glyph name="product" format="2">
  <advance width="724"/>
  <unicode hex="220F"/>
  <outline>
    <contour>
      <point x="752" y="742" type="curve"/>
      <point x="752" y="742" type="line"/>
      <point x="98" y="742" type="line" smooth="yes"/>
      <point x="81" y="742"/>
      <point x="76" y="738"/>
      <point x="75" y="725" type="curve"/>
      <point x="58" y="606" type="line" smooth="yes"/>
      <point x="56" y="592"/>
      <point x="67" y="581"/>
      <point x="81" y="581" type="curve"/>
      <point x="131" y="581" type="line" smooth="yes"/>
      <point x="139" y="581"/>
      <point x="139" y="583"/>
      <point x="137" y="573" type="curve"/>
      <point x="60" y="26" type="line" smooth="yes"/>
      <point x="59" y="13"/>
      <point x="68" y="0"/>
      <point x="79" y="0" type="curve"/>
      <point x="246" y="0" type="line" smooth="yes"/>
      <point x="257" y="0"/>
      <point x="261" y="1"/>
      <point x="263" y="16" type="curve"/>
      <point x="340" y="565" type="line" smooth="yes"/>
      <point x="341" y="572"/>
      <point x="350" y="581"/>
      <point x="358" y="581" type="curve"/>
      <point x="463" y="581" type="line" smooth="yes"/>
      <point x="471" y="581"/>
      <point x="471" y="583"/>
      <point x="469" y="573" type="curve"/>
      <point x="392" y="26" type="line" smooth="yes"/>
      <point x="391" y="13"/>
      <point x="400" y="0"/>
      <point x="411" y="0" type="curve"/>
      <point x="578" y="0" type="line" smooth="yes"/>
      <point x="589" y="0"/>
      <point x="593" y="1"/>
      <point x="595" y="16" type="curve"/>
      <point x="672" y="565" type="line" smooth="yes"/>
      <point x="673" y="572"/>
      <point x="682" y="581"/>
      <point x="690" y="581" type="curve"/>
      <point x="740" y="581" type="line" smooth="yes"/>
      <point x="753" y="581"/>
      <point x="758" y="580"/>
      <point x="760" y="594" type="curve"/>
      <point x="777" y="713" type="line" smooth="yes"/>
      <point x="779" y="726"/>
      <point x="769" y="742"/>
    </contour>
  </outline>
</glyph>
<glyph name="summation" format="2">
  <advance width="600"/>
  <unicode hex="2211"/>
  <outline>
    <contour>
      <point x="1" y="0" type="curve"/>
      <point x="534" y="0" type="line"/>
      <point x="542" y="0"/>
      <point x="540" y="-3"/>
      <point x="542" y="6" type="curve"/>
      <point x="562" y="152" type="line" smooth="yes"/>
      <point x="563" y="158"/>
      <point x="557" y="166"/>
      <point x="550" y="166" type="curve"/>
      <point x="271" y="166" type="line" smooth="yes"/>
      <point x="267" y="166"/>
      <point x="272" y="165"/>
      <point x="277" y="170" type="curve"/>
      <point x="492" y="381" type="line" smooth="yes"/>
      <point x="493" y="384"/>
      <point x="490" y="387"/>
      <point x="488" y="391" type="curve"/>
      <point x="349" y="573" type="line" smooth="yes"/>
      <point x="348" y="577"/>
      <point x="356" y="585"/>
      <point x="360" y="585" type="curve"/>
      <point x="603" y="585" type="line" smooth="yes"/>
      <point x="606" y="585"/>
      <point x="603" y="580"/>
      <point x="604" y="585" type="curve"/>
      <point x="624" y="730" type="line" smooth="yes"/>
      <point x="625" y="734"/>
      <point x="620" y="742"/>
      <point x="615" y="742" type="curve"/>
      <point x="106" y="742" type="line" smooth="yes"/>
      <point x="98" y="742"/>
      <point x="99" y="745"/>
      <point x="98" y="738" type="curve"/>
      <point x="83" y="628" type="line" smooth="yes"/>
      <point x="82" y="619"/>
      <point x="85" y="612"/>
      <point x="88" y="607" type="curve"/>
      <point x="237" y="387" type="line" smooth="yes"/>
      <point x="243" y="375"/>
      <point x="237" y="366"/>
      <point x="229" y="358" type="curve"/>
      <point x="8" y="132" type="line" smooth="yes"/>
      <point x="3" y="125"/>
      <point x="2" y="120"/>
      <point x="0" y="112" type="curve"/>
      <point x="-13" y="19" type="line" smooth="yes"/>
      <point x="-14" y="11"/>
      <point x="-7" y="0"/>
    </contour>
  </outline>
</glyph>
<glyph name="eight.numr" format="2">
  <advance width="401"/>
  <outline>
    <contour>
      <point x="237" y="752" type="curve"/>
      <point x="237" y="752" type="line"/>
      <point x="115" y="752"/>
      <point x="39" y="676"/>
      <point x="39" y="594" type="curve" smooth="yes"/>
      <point x="39" y="545"/>
      <point x="66" y="525"/>
      <point x="88" y="509" type="curve"/>
      <point x="94" y="504"/>
      <point x="93" y="501"/>
      <point x="87" y="499" type="curve"/>
      <point x="27" y="471"/>
      <point x="-3" y="434"/>
      <point x="-3" y="386" type="curve" smooth="yes"/>
      <point x="-3" y="312"/>
      <point x="70" y="273"/>
      <point x="176" y="273" type="curve" smooth="yes"/>
      <point x="297" y="273"/>
      <point x="402" y="324"/>
      <point x="402" y="424" type="curve" smooth="yes"/>
      <point x="402" y="493"/>
      <point x="353" y="510"/>
      <point x="333" y="525" type="curve"/>
      <point x="327" y="529"/>
      <point x="328" y="531"/>
      <point x="334" y="534" type="curve" smooth="yes"/>
      <point x="371" y="553"/>
      <point x="410" y="576"/>
      <point x="410" y="628" type="curve" smooth="yes"/>
      <point x="410" y="699"/>
      <point x="339" y="752"/>
    </contour>
    <contour>
      <point x="240" y="661" type="curve"/>
      <point x="240" y="661" type="line"/>
      <point x="272" y="661"/>
      <point x="292" y="646"/>
      <point x="292" y="624" type="curve" smooth="yes"/>
      <point x="292" y="597"/>
      <point x="266" y="559"/>
      <point x="235" y="570" type="curve" smooth="yes"/>
      <point x="197" y="583" type="line" smooth="yes"/>
      <point x="178" y="590"/>
      <point x="174" y="601"/>
      <point x="174" y="612" type="curve" smooth="yes"/>
      <point x="174" y="636"/>
      <point x="198" y="661"/>
    </contour>
    <contour>
      <point x="181" y="364" type="curve"/>
      <point x="181" y="364" type="line"/>
      <point x="140" y="364"/>
      <point x="118" y="377"/>
      <point x="118" y="402" type="curve" smooth="yes"/>
      <point x="118" y="435"/>
      <point x="155" y="475"/>
      <point x="184" y="464" type="curve" smooth="yes"/>
      <point x="227" y="448" type="line" smooth="yes"/>
      <point x="254" y="438"/>
      <point x="260" y="429"/>
      <point x="260" y="414" type="curve" smooth="yes"/>
      <point x="260" y="385"/>
      <point x="235" y="364"/>
    </contour>
  </outline>
</glyph>
<glyph name="five.dnom" format="2">
  <advance width="401"/>
  <outline>
    <contour>
      <point x="359" y="464" type="curve" smooth="yes"/>
      <point x="80" y="464" type="line" smooth="yes"/>
      <point x="58" y="464"/>
      <point x="55" y="463"/>
      <point x="52" y="449" type="curve" smooth="yes"/>
      <point x="5" y="254" type="line"/>
      <point x="3" y="242"/>
      <point x="2" y="231"/>
      <point x="10" y="227" type="curve"/>
      <point x="84" y="184" type="line"/>
      <point x="90" y="180"/>
      <point x="96" y="179"/>
      <point x="102" y="182" type="curve" smooth="yes"/>
      <point x="130" y="196"/>
      <point x="147" y="202"/>
      <point x="169" y="202" type="curve" smooth="yes"/>
      <point x="211" y="202"/>
      <point x="227" y="182"/>
      <point x="227" y="159" type="curve" smooth="yes"/>
      <point x="227" y="122"/>
      <point x="194" y="89"/>
      <point x="141" y="89" type="curve" smooth="yes"/>
      <point x="97" y="89"/>
      <point x="78" y="111"/>
      <point x="56" y="137" type="curve" smooth="yes"/>
      <point x="49" y="146"/>
      <point x="43" y="151"/>
      <point x="38" y="147" type="curve"/>
      <point x="-37" y="100" type="line" smooth="yes"/>
      <point x="-45" y="95"/>
      <point x="-47" y="91"/>
      <point x="-40" y="79" type="curve" smooth="yes"/>
      <point x="-12" y="30"/>
      <point x="58" y="-9"/>
      <point x="152" y="-9" type="curve" smooth="yes"/>
      <point x="275" y="-9"/>
      <point x="367" y="54"/>
      <point x="367" y="167" type="curve" smooth="yes"/>
      <point x="367" y="252"/>
      <point x="303" y="301"/>
      <point x="209" y="301" type="curve" smooth="yes"/>
      <point x="183" y="301"/>
      <point x="164" y="298"/>
      <point x="127" y="289" type="curve" smooth="yes"/>
      <point x="122" y="288"/>
      <point x="122" y="290"/>
      <point x="122" y="293" type="curve"/>
      <point x="134" y="340" type="line" smooth="yes"/>
      <point x="136" y="349"/>
      <point x="139" y="350"/>
      <point x="148" y="350" type="curve" smooth="yes"/>
      <point x="339" y="350" type="line" smooth="yes"/>
      <point x="351" y="350"/>
      <point x="353" y="352"/>
      <point x="355" y="361" type="curve" smooth="yes"/>
      <point x="371" y="447" type="line" smooth="yes"/>
      <point x="373" y="459"/>
      <point x="372" y="464"/>
    </contour>
  </outline>
</glyph>
<glyph name="nine.dnom" format="2">
  <advance width="404"/>
  <outline>
    <contour>
      <point x="132" y="-10" type="curve"/>
      <point x="132" y="-10" type="line"/>
      <point x="283" y="-10"/>
      <point x="380" y="123"/>
      <point x="380" y="278" type="curve" smooth="yes"/>
      <point x="380" y="392"/>
      <point x="312" y="467"/>
      <point x="195" y="467" type="curve" smooth="yes"/>
      <point x="85" y="467"/>
      <point x="-17" y="400"/>
      <point x="-17" y="298" type="curve" smooth="yes"/>
      <point x="-17" y="223"/>
      <point x="43" y="172"/>
      <point x="135" y="172" type="curve" smooth="yes"/>
      <point x="168" y="172"/>
      <point x="190" y="177"/>
      <point x="217" y="187" type="curve"/>
      <point x="226" y="191"/>
      <point x="228" y="191"/>
      <point x="228" y="184" type="curve"/>
      <point x="219" y="124"/>
      <point x="182" y="87"/>
      <point x="136" y="87" type="curve" smooth="yes"/>
      <point x="109" y="87"/>
      <point x="97" y="101"/>
      <point x="89" y="123" type="curve" smooth="yes"/>
      <point x="85" y="133"/>
      <point x="79" y="137"/>
      <point x="71" y="135" type="curve" smooth="yes"/>
      <point x="-18" y="109" type="line"/>
      <point x="-23" y="107"/>
      <point x="-26" y="104"/>
      <point x="-25" y="98" type="curve" smooth="yes"/>
      <point x="-20" y="55"/>
      <point x="34" y="-10"/>
    </contour>
    <contour>
      <point x="170" y="262" type="curve"/>
      <point x="170" y="262" type="line"/>
      <point x="145" y="262"/>
      <point x="123" y="274"/>
      <point x="123" y="302" type="curve" smooth="yes"/>
      <point x="123" y="338"/>
      <point x="157" y="376"/>
      <point x="197" y="376" type="curve" smooth="yes"/>
      <point x="227" y="376"/>
      <point x="245" y="357"/>
      <point x="245" y="320" type="curve" smooth="yes"/>
      <point x="245" y="303"/>
      <point x="243" y="288"/>
      <point x="230" y="281" type="curve" smooth="yes"/>
      <point x="212" y="271"/>
      <point x="193" y="262"/>
    </contour>
  </outline>
</glyph>
<glyph name="one.dnom" format="2">
  <advance width="299"/>
  <outline>
    <contour>
      <point x="234" y="103" type="curve"/>
      <point x="234" y="103" type="line"/>
      <point x="174" y="103" type="line" smooth="yes"/>
      <point x="170" y="103"/>
      <point x="168" y="104"/>
      <point x="169" y="109" type="curve"/>
      <point x="217" y="454" type="line"/>
      <point x="219" y="462"/>
      <point x="216" y="467"/>
      <point x="209" y="467" type="curve" smooth="yes"/>
      <point x="152" y="467" type="line" smooth="yes"/>
      <point x="140" y="467"/>
      <point x="134" y="465"/>
      <point x="119" y="459" type="curve"/>
      <point x="-1" y="403" type="line" smooth="yes"/>
      <point x="-10" y="399"/>
      <point x="-11" y="398"/>
      <point x="-13" y="387" type="curve" smooth="yes"/>
      <point x="-22" y="327" type="line" smooth="yes"/>
      <point x="-23" y="317"/>
      <point x="-18" y="312"/>
      <point x="-7" y="315" type="curve"/>
      <point x="49" y="327" type="line"/>
      <point x="56" y="328"/>
      <point x="57" y="327"/>
      <point x="56" y="323" type="curve"/>
      <point x="27" y="113" type="line" smooth="yes"/>
      <point x="26" y="106"/>
      <point x="24" y="103"/>
      <point x="18" y="103" type="curve" smooth="yes"/>
      <point x="-40" y="103" type="line" smooth="yes"/>
      <point x="-50" y="103"/>
      <point x="-52" y="101"/>
      <point x="-53" y="95" type="curve" smooth="yes"/>
      <point x="-64" y="12" type="line"/>
      <point x="-66" y="4"/>
      <point x="-64" y="0"/>
      <point x="-53" y="0" type="curve" smooth="yes"/>
      <point x="219" y="0" type="line" smooth="yes"/>
      <point x="229" y="0"/>
      <point x="232" y="3"/>
      <point x="233" y="10" type="curve" smooth="yes"/>
      <point x="244" y="92" type="line"/>
      <point x="246" y="101"/>
      <point x="243" y="103"/>
    </contour>
  </outline>
</glyph>
<glyph name="two.numr" format="2">
  <advance width="384"/>
  <outline>
    <contour>
      <point x="151" y="488" type="curve" smooth="yes"/>
      <point x="33" y="400" type="line" smooth="yes"/>
      <point x="-5" y="372"/>
      <point x="-6" y="368"/>
      <point x="-8" y="361" type="curve"/>
      <point x="-17" y="298" type="line"/>
      <point x="-18" y="286"/>
      <point x="-12" y="279"/>
      <point x="0" y="279" type="curve" smooth="yes"/>
      <point x="352" y="279" type="line" smooth="yes"/>
      <point x="363" y="279"/>
      <point x="365" y="282"/>
      <point x="367" y="289" type="curve"/>
      <point x="379" y="383" type="line" smooth="yes"/>
      <point x="380" y="392"/>
      <point x="375" y="395"/>
      <point x="366" y="395" type="curve" smooth="yes"/>
      <point x="195" y="395" type="line" smooth="yes"/>
      <point x="190" y="395"/>
      <point x="190" y="399"/>
      <point x="197" y="404" type="curve" smooth="yes"/>
      <point x="307" y="475" type="line" smooth="yes"/>
      <point x="372" y="516"/>
      <point x="407" y="553"/>
      <point x="407" y="619" type="curve" smooth="yes"/>
      <point x="407" y="698"/>
      <point x="344" y="752"/>
      <point x="236" y="752" type="curve" smooth="yes"/>
      <point x="155" y="752"/>
      <point x="83" y="714"/>
      <point x="36" y="647" type="curve" smooth="yes"/>
      <point x="26" y="634"/>
      <point x="27" y="628"/>
      <point x="31" y="626" type="curve" smooth="yes"/>
      <point x="121" y="576" type="line" smooth="yes"/>
      <point x="126" y="573"/>
      <point x="129" y="575"/>
      <point x="131" y="578" type="curve"/>
      <point x="157" y="624"/>
      <point x="190" y="650"/>
      <point x="225" y="650" type="curve" smooth="yes"/>
      <point x="257" y="650"/>
      <point x="269" y="635"/>
      <point x="269" y="610" type="curve" smooth="yes"/>
      <point x="269" y="582"/>
      <point x="248" y="560"/>
    </contour>
  </outline>
</glyph>
